<svg width="33" height="26" viewBox="0 0 33 26" fill="none" xmlns="http://www.w3.org/2000/svg">
<path d="M12.7042 9.22724L12.704 9.22728C11.142 9.70436 9.08779 8.5434 8.24279 6.37711C7.39937 4.21488 8.20981 2.25459 9.72269 1.7931C11.2856 1.31635 13.3391 2.47706 14.1841 4.64323C15.0275 6.80546 14.2171 8.76574 12.7042 9.22724ZM6.16986 22.981C6.10486 22.0515 6.4171 20.9042 7.04657 19.6706C7.67175 18.4455 8.58836 17.1777 9.67185 16.0215C11.8602 13.6864 14.6251 11.9131 16.9128 11.7531C19.2005 11.5931 22.1853 12.9644 24.6774 14.9722C25.9112 15.9664 26.9953 17.0943 27.7849 18.2205C28.58 19.3544 29.0488 20.4471 29.1138 21.3766C29.1686 22.1598 28.878 22.7906 28.2736 23.2665C27.6487 23.7586 26.6605 24.1032 25.3176 24.1971C23.8845 24.2973 22.662 24.0577 21.4519 23.7995C21.385 23.7852 21.318 23.7708 21.2509 23.7564C20.1204 23.514 18.966 23.2663 17.724 23.3532C16.497 23.439 15.3985 23.8415 14.3195 24.2369C14.2504 24.2623 14.1813 24.2876 14.1123 24.3127C12.9515 24.7365 11.7685 25.1445 10.3217 25.2457C8.97876 25.3396 7.95227 25.1359 7.26494 24.7356C6.60022 24.3484 6.22463 23.7642 6.16986 22.981ZM3.13065 9.26674C4.64952 8.83659 6.49287 9.76325 7.18677 11.4033C7.86708 13.0112 7.14493 14.5719 5.68545 14.9853C4.16658 15.4154 2.32324 14.4888 1.62933 12.8487C0.949023 11.2408 1.67118 9.68007 3.13065 9.26674ZM28.4802 13.3919C26.9774 13.1857 26.045 11.7407 26.4949 10.0537C26.9545 8.33283 28.6504 7.15886 30.2142 7.37342C31.717 7.5796 32.6493 9.02454 32.1995 10.7114C31.74 12.4324 30.044 13.6064 28.4802 13.3919ZM24.7503 5.22279C24.215 7.48548 22.343 8.92069 20.7289 8.66609C19.1666 8.41964 18.0912 6.59122 18.6255 4.33266C19.1608 2.06983 21.0328 0.634324 22.6467 0.88934C24.2093 1.13626 25.2845 2.96436 24.7503 5.22279Z" stroke="#413F3F"/>
</svg>
